<?xml version="1.0" encoding="UTF-8"?>
<!DOCTYPE svg PUBLIC "-//W3C//DTD SVG 1.1//EN" "http://www.w3.org/Graphics/SVG/1.1/DTD/svg11.dtd">
<!-- Creator: CorelDRAW X7 -->
<svg xmlns="http://www.w3.org/2000/svg" xml:space="preserve" width="2835px" height="709px" version="1.1" style="shape-rendering:geometricPrecision; text-rendering:geometricPrecision; image-rendering:optimizeQuality; fill-rule:evenodd; clip-rule:evenodd"
viewBox="0 0 2835 709"
 xmlns:xlink="http://www.w3.org/1999/xlink">
 <defs>
  <style type="text/css">
   <![CDATA[
    .fil0 {fill:#FEFEFE}
    .fil1 {fill:#5B5B5B;fill-rule:nonzero}
    .fil2 {fill:#E31E24;fill-rule:nonzero}
   ]]>
  </style>
 </defs>
 <g id="Слой_x0020_1">
  <metadata id="CorelCorpID_0Corel-Layer"/>
  <polygon class="fil0" points="-207,604 -207,1497 -3782,1497 -3782,604 "/>
  <g id="_703332640">
   <path class="fil1" d="M15 591c10,-3 19,-5 26,-5 13,0 21,4 28,11 6,7 9,17 9,31 0,19 -5,37 -15,50 -10,14 -24,20 -40,20 -9,0 -17,-2 -25,-5l4 -14c6,4 13,6 22,6 9,0 17,-4 24,-11 6,-7 11,-17 13,-29l-37 0 2 -12 37 0c0,-1 0,-3 0,-5 0,-19 -8,-29 -24,-29 -6,0 -12,2 -21,6l-3 -14 0 0z"/>
   <path id="_1" class="fil1" d="M157 617l-2 12c0,0 -1,0 -2,0 -2,0 -2,0 -3,0 -1,1 -2,2 -3,4 -4,12 -12,20 -23,22 10,4 16,12 17,25 0,2 0,3 1,4 0,0 1,0 3,0 0,0 1,0 2,0l-2 13c-1,0 -3,0 -4,0 -10,0 -14,-5 -14,-15 0,-8 -2,-13 -5,-16 -4,-3 -10,-6 -16,-6l-1 0 -6 36 -14 0 13 -79 14 0 -6 32 2 0c8,0 13,-2 17,-5 5,-3 8,-8 10,-15 3,-4 5,-7 7,-10 2,-2 6,-3 10,-3 2,0 3,0 5,1l0 0z"/>
   <path id="_2" class="fil1" d="M222 619l-2 12c-3,-2 -8,-3 -14,-3 -9,0 -15,3 -21,10 -6,7 -8,16 -8,27 0,4 0,7 2,9 1,4 3,7 6,8 3,2 6,3 9,3 7,0 14,-2 20,-6l-1 14c-7,3 -14,5 -21,5 -10,0 -17,-3 -22,-8 -5,-6 -7,-13 -7,-23 0,-15 4,-27 11,-37 8,-10 19,-14 31,-14 8,0 13,1 17,3l0 0z"/>
   <path id="_3" class="fil1" d="M274 696l9 -46c1,-4 1,-7 1,-10 0,-9 -4,-12 -13,-12 -2,0 -5,0 -8,1 -2,1 -5,3 -7,5 -2,2 -4,3 -4,4l-10 58 -14 0 11 -59c0,-3 0,-4 0,-6 0,-4 0,-8 -1,-13l12 -2c2,7 2,11 2,12 7,-9 15,-12 26,-12 14,0 20,7 20,22 0,2 0,4 0,7l-9 51 -15 0 0 0z"/>
   <path id="_4" class="fil1" d="M324 692l-7 35 -13 0 15 -86c0,-4 1,-8 1,-12 0,-3 -1,-6 -1,-11l14 -2c0,1 0,4 1,10 2,-2 5,-4 9,-7 5,-2 9,-3 12,-3 20,0 29,10 29,29 0,11 -2,20 -6,28 -4,8 -10,14 -16,19 -6,4 -13,6 -22,6 -3,0 -6,-1 -9,-2 -4,-1 -6,-2 -7,-4l0 0zm2 -11c1,1 2,2 5,3 2,1 5,2 7,2 11,0 18,-3 23,-10 5,-7 8,-17 8,-29 0,-13 -6,-19 -18,-19 -2,0 -3,0 -5,1 -2,0 -3,1 -5,1 -1,1 -2,2 -3,2 -1,1 -2,1 -3,3 0,1 -1,1 -1,2 -1,0 -2,3 -3,9l-5 35 0 0z"/>
   <path id="_5" class="fil1" d="M406 658c0,1 0,2 0,5 0,8 2,14 6,17 3,4 9,6 14,6 5,0 11,-2 18,-6l-1 14c-8,2 -14,4 -21,4 -20,0 -30,-12 -30,-34 0,-13 5,-25 13,-34 8,-10 19,-14 31,-14 8,0 14,1 18,4 4,4 7,9 7,16 0,8 -4,15 -10,20 -7,4 -16,7 -26,7 -7,0 -14,-1 -19,-5l0 0zm3 -9c4,2 9,3 14,3 7,0 13,-2 18,-5 5,-2 7,-5 7,-10 0,-3 -1,-5 -3,-7 -2,-2 -6,-2 -10,-2 -6,0 -11,1 -15,5 -5,4 -9,9 -11,16l0 0z"/>
   <path id="_6" class="fil1" d="M527 619l-2 12c-3,-2 -8,-3 -13,-3 -10,0 -16,3 -22,10 -6,7 -8,16 -8,27 0,4 0,7 2,9 1,4 4,7 6,8 3,2 6,3 9,3 7,0 14,-2 20,-6l-1 14c-6,3 -14,5 -21,5 -9,0 -17,-3 -22,-8 -5,-6 -7,-13 -7,-23 0,-15 4,-27 11,-37 9,-10 19,-14 32,-14 7,0 12,1 16,3l0 0z"/>
   <path id="_7" class="fil1" d="M594 619l-2 12c-4,-2 -8,-3 -14,-3 -9,0 -15,3 -22,10 -5,7 -7,16 -7,27 0,4 0,7 1,9 2,4 4,7 6,8 4,2 7,3 10,3 7,0 13,-2 20,-6l-1 14c-7,3 -14,5 -21,5 -10,0 -17,-3 -22,-8 -5,-6 -7,-13 -7,-23 0,-15 4,-27 11,-37 8,-10 19,-14 31,-14 8,0 13,1 17,3l0 0z"/>
   <polygon id="_8" class="fil1" points="605,659 607,646 638,646 636,659 "/>
   <path id="_9" class="fil1" d="M676 585c10,-1 17,-1 22,-1 24,0 36,12 36,34 0,11 -2,23 -6,37 -4,14 -10,25 -17,32 -7,7 -17,11 -26,11 -9,0 -17,-3 -22,-8 -6,-6 -8,-13 -8,-22 0,-13 4,-24 11,-34 9,-9 18,-14 31,-14 8,0 16,3 22,9 0,-3 2,-6 2,-10 0,-8 -3,-14 -7,-18 -4,-4 -10,-6 -19,-6 -5,0 -10,1 -17,3l-2 -13 0 0zm42 54c-6,-6 -13,-8 -23,-8 -6,0 -12,3 -18,11 -6,8 -9,15 -9,25 0,6 2,11 6,14 2,3 7,5 12,5 7,0 14,-4 20,-12 5,-8 9,-20 12,-35l0 0z"/>
   <path id="_10" class="fil1" d="M740 667c0,-9 2,-16 6,-25 3,-8 8,-14 14,-19 7,-5 15,-7 23,-7 9,0 16,2 21,8 5,5 7,12 7,21 0,14 -4,27 -11,37 -8,11 -18,16 -31,16 -10,0 -16,-3 -21,-8 -6,-6 -8,-13 -8,-23zm15 -1c0,14 5,20 16,20 8,0 14,-4 18,-13 6,-7 8,-17 8,-27 0,-13 -5,-19 -16,-19 -8,0 -14,4 -20,12 -4,8 -6,17 -6,27z"/>
   <path id="_11" class="fil1" d="M879 619l-2 12c-3,-2 -8,-3 -13,-3 -9,0 -16,3 -21,10 -7,7 -9,16 -9,27 0,4 0,7 2,9 2,4 4,7 7,8 2,2 5,3 8,3 7,0 14,-2 20,-6l-1 14c-6,3 -14,5 -21,5 -9,0 -17,-3 -22,-8 -5,-6 -7,-13 -7,-23 0,-15 4,-27 12,-37 8,-10 18,-14 31,-14 7,0 12,1 16,3l0 0z"/>
   <path id="_12" class="fil1" d="M974 696l7 -38c2,-9 2,-15 2,-17 0,-9 -4,-13 -13,-13 -2,0 -4,0 -7,1 -2,1 -5,4 -8,9l-11 58 -15 0 11 -56c0,0 0,-1 0,-2 0,-7 -4,-10 -14,-10 -3,0 -7,1 -10,4 -4,4 -6,5 -6,6l-10 58 -14 0 10 -57c0,-2 0,-5 0,-8 0,-4 0,-8 -1,-13l13 -2c1,3 2,7 2,10 2,-3 5,-6 9,-8 4,-2 9,-2 14,-2 10,0 17,3 21,10 2,-2 6,-6 10,-8 4,-1 8,-2 14,-2 13,0 19,7 19,21 0,2 0,4 0,6l-9 53 -14 0 0 0z"/>
   <path id="_13" class="fil1" d="M1081 623l-9 45c-1,3 -1,5 -1,9 0,6 1,13 4,19l-14 0c-2,-3 -3,-6 -4,-11 -3,5 -6,8 -10,10 -5,2 -9,3 -13,3 -7,0 -14,-3 -18,-7 -4,-5 -6,-11 -6,-20 0,-15 4,-28 12,-39 9,-10 19,-17 32,-17 12,0 21,3 27,8l0 0zm-16 7c-1,-2 -5,-3 -12,-3 -8,0 -15,4 -20,13 -6,7 -9,18 -9,30 0,11 5,16 13,16 4,0 7,-1 11,-3 4,-2 6,-4 7,-6 1,-3 2,-7 3,-13l7 -34 0 0z"/>
   <path id="_14" class="fil1" d="M1157 636c0,4 -2,8 -5,13 -3,3 -7,5 -14,7 6,1 10,3 12,7 3,2 4,6 4,9 0,8 -3,13 -9,19 -7,4 -16,7 -27,7 -6,0 -11,-1 -16,-2 -6,-1 -10,-2 -12,-3 -2,-1 -2,-2 -2,-3 0,-1 1,-8 3,-21 4,-15 5,-24 6,-26 1,-5 3,-10 6,-13 2,-3 5,-6 8,-8 3,-3 7,-5 11,-5 3,-1 7,-2 10,-2 9,0 14,2 19,5 4,5 6,9 6,16l0 0zm-50 15l14 0c15,0 23,-5 23,-14 0,-4 -1,-6 -3,-8 -3,-2 -6,-3 -10,-3 -12,0 -21,8 -24,25l0 0zm-5 32c1,1 3,2 6,3 3,0 7,1 12,1 6,0 11,-1 15,-4 3,-2 6,-5 6,-11 0,-3 -2,-6 -5,-8 -2,-2 -6,-4 -12,-4l-18 0 -4 23 0 0z"/>
   <path id="_15" class="fil1" d="M1240 617l-2 12c-1,0 -2,0 -3,0 -1,0 -3,0 -4,0 -1,1 -1,2 -2,4 -4,12 -12,20 -23,22 10,4 15,12 16,25 0,2 1,3 1,4 1,0 2,0 3,0 1,0 2,0 3,0l-2 13c-2,0 -3,0 -5,0 -8,0 -14,-5 -14,-15 0,-8 -1,-13 -5,-16 -3,-3 -8,-6 -15,-6l-1 0 -7 36 -13 0 13 -79 14 0 -5 32 1 0c7,0 13,-2 17,-5 5,-3 8,-8 11,-15 1,-4 3,-7 5,-10 3,-2 6,-3 12,-3 1,0 3,0 5,1l0 0z"/>
   <path id="_16" class="fil1" d="M1315 623l-9 45c-1,3 -1,5 -1,9 0,6 2,13 4,19l-14 0c-2,-3 -3,-6 -3,-11 -4,5 -7,8 -11,10 -4,2 -9,3 -13,3 -7,0 -13,-3 -18,-7 -4,-5 -6,-11 -6,-20 0,-15 4,-28 13,-39 8,-10 18,-17 32,-17 11,0 20,3 26,8l0 0zm-16 7c-1,-2 -5,-3 -12,-3 -8,0 -14,4 -20,13 -5,7 -8,18 -8,30 0,11 4,16 12,16 4,0 7,-1 12,-3 3,-2 5,-4 6,-6 2,-3 3,-7 4,-13l6 -34 0 0z"/>
   <path id="_17" class="fil1" d="M1388 585c10,-1 18,-1 22,-1 24,0 36,12 36,34 0,11 -1,23 -6,37 -4,14 -9,25 -16,32 -9,7 -17,11 -26,11 -10,0 -17,-3 -23,-8 -6,-6 -8,-13 -8,-22 0,-13 3,-24 12,-34 7,-9 18,-14 30,-14 8,0 17,3 23,9 0,-3 1,-6 1,-10 0,-8 -2,-14 -6,-18 -4,-4 -11,-6 -19,-6 -5,0 -11,1 -19,3l-1 -13 0 0zm43 54c-6,-6 -15,-8 -23,-8 -7,0 -14,3 -19,11 -5,8 -8,15 -8,25 0,6 1,11 4,14 3,3 7,5 14,5 7,0 13,-4 19,-12 6,-8 10,-20 13,-35l0 0z"/>
   <path id="_18" class="fil1" d="M1453 667c0,-9 1,-16 5,-25 3,-8 9,-14 15,-19 6,-5 13,-7 22,-7 9,0 16,2 22,8 4,5 7,12 7,21 0,14 -4,27 -12,37 -8,11 -18,16 -31,16 -9,0 -17,-3 -21,-8 -5,-6 -7,-13 -7,-23l0 0zm14 -1c0,14 6,20 16,20 9,0 15,-4 19,-13 5,-7 7,-17 7,-27 0,-13 -5,-19 -15,-19 -9,0 -15,4 -20,12 -4,8 -7,17 -7,27l0 0z"/>
   <path id="_19" class="fil1" d="M1604 617l-2 12c-1,0 -2,0 -3,0 -1,0 -2,0 -3,0 -1,1 -1,2 -2,4 -5,12 -13,20 -23,22 9,4 15,12 16,25 0,2 1,3 1,4 1,0 2,0 3,0 1,0 2,0 3,0l-2 13c-2,0 -3,0 -5,0 -9,0 -14,-5 -14,-15 0,-8 -1,-13 -5,-16 -3,-3 -9,-6 -16,-6l-1 0 -6 36 -14 0 14 -79 13 0 -5 32 1 0c8,0 14,-2 18,-5 4,-3 7,-8 10,-15 2,-4 4,-7 6,-10 3,-2 6,-3 11,-3 1,0 3,0 5,1l0 0z"/>
   <path id="_20" class="fil1" d="M1608 727l0 -14c6,0 11,-1 16,-2 4,-2 8,-6 11,-15 -8,0 -12,-6 -14,-19l-9 -60 14 0 9 57c1,7 3,9 6,9l27 -66 16 0 -38 87c-4,8 -9,15 -14,18 -6,3 -14,5 -24,5l0 0z"/>
   <polygon id="_21" class="fil1" points="1760,696 1761,649 1728,697 1725,697 1709,649 1690,696 1677,696 1709,616 1713,616 1731,673 1769,616 1774,616 1775,696 "/>
   <path id="_22" class="fil1" d="M1805 658c-1,1 -1,2 -1,5 0,8 2,14 6,17 3,4 9,6 14,6 5,0 11,-2 18,-6l-1 14c-8,2 -14,4 -21,4 -19,0 -30,-12 -30,-34 0,-13 5,-25 13,-34 8,-10 19,-14 31,-14 8,0 14,1 18,4 5,4 7,9 7,16 0,8 -4,15 -10,20 -7,4 -16,7 -26,7 -8,0 -14,-1 -18,-5l0 0zm2 -9c4,2 8,3 14,3 7,0 13,-2 18,-5 5,-2 7,-5 7,-10 0,-3 -1,-5 -3,-7 -2,-2 -6,-2 -10,-2 -5,0 -10,1 -15,5 -5,4 -9,9 -11,16l0 0z"/>
   <polygon id="_23" class="fil1" points="1941,617 1927,696 1913,696 1919,660 1884,660 1878,696 1865,696 1878,617 1892,617 1887,649 1921,649 1926,617 "/>
   <path id="_24" class="fil1" d="M2036 696l6 -38c2,-9 3,-15 3,-17 0,-9 -4,-13 -12,-13 -3,0 -5,0 -9,1 -2,1 -5,4 -8,9l-10 58 -14 0 9 -56c0,0 0,-1 0,-2 0,-7 -4,-10 -13,-10 -3,0 -6,1 -11,4 -4,4 -6,5 -6,6l-9 58 -15 0 11 -57c0,-2 0,-5 0,-8 0,-4 0,-8 -1,-13l12 -2c1,3 2,7 2,10 2,-3 5,-6 10,-8 4,-2 9,-2 13,-2 12,0 18,3 22,10 2,-2 5,-6 9,-8 5,-1 9,-2 14,-2 14,0 21,7 21,21 0,2 -1,4 -1,6l-10 53 -13 0 0 0z"/>
   <path id="_25" class="fil1" d="M2071 667c0,-9 1,-16 6,-25 3,-8 8,-14 14,-19 7,-5 14,-7 22,-7 10,0 17,2 22,8 4,5 7,12 7,21 0,14 -4,27 -11,37 -8,11 -19,16 -31,16 -10,0 -17,-3 -21,-8 -5,-6 -8,-13 -8,-23l0 0zm14 -1c0,14 6,20 17,20 8,0 14,-4 19,-13 5,-7 7,-17 7,-27 0,-13 -5,-19 -17,-19 -7,0 -13,4 -19,12 -4,8 -7,17 -7,27z"/>
   <path id="_26" class="fil1" d="M2219 636c0,4 -1,8 -5,13 -4,3 -8,5 -13,7 4,1 8,3 11,7 3,2 5,6 5,9 0,8 -3,13 -10,19 -6,4 -15,7 -28,7 -4,0 -9,-1 -16,-2 -5,-1 -9,-2 -10,-3 -2,-1 -3,-2 -3,-3 0,-1 1,-8 3,-21 3,-15 5,-24 5,-26 2,-5 4,-10 6,-13 3,-3 6,-6 9,-8 3,-3 7,-5 10,-5 3,-1 8,-2 12,-2 7,0 13,2 17,5 5,5 7,9 7,16l0 0zm-49 15l12 0c16,0 24,-5 24,-14 0,-4 -1,-6 -3,-8 -2,-2 -5,-3 -9,-3 -14,0 -22,8 -24,25l0 0zm-7 32c1,1 4,2 7,3 4,0 7,1 11,1 6,0 12,-1 16,-4 4,-2 6,-5 6,-11 0,-3 -1,-6 -4,-8 -3,-2 -7,-4 -13,-4l-18 0 -5 23 0 0z"/>
   <path id="_27" class="fil1" d="M2300 617l-9 52c0,1 0,2 0,4 0,9 4,13 12,13 5,0 10,-2 15,-6 4,-3 7,-9 8,-15l9 -48 14 0 -14 79 -14 0 1 -11c-5,9 -13,13 -27,13 -6,0 -10,-2 -14,-6 -4,-3 -5,-9 -5,-15 0,-3 0,-5 0,-7l10 -53 14 0 0 0z"/>
   <path id="_28" class="fil1" d="M2410 622c8,-5 18,-6 26,-6 8,0 15,1 19,4 4,5 6,9 6,16 0,4 -1,8 -4,11 -3,5 -8,8 -18,11 -5,2 -10,5 -14,6 -5,2 -7,3 -9,5 -2,2 -3,4 -3,8 0,6 4,9 13,9 9,0 17,-3 26,-8l-2 14c-9,4 -18,6 -25,6 -9,0 -15,-2 -19,-6 -5,-3 -8,-9 -8,-15 0,-11 8,-19 22,-24 12,-4 19,-8 22,-9 2,-2 5,-4 5,-7 0,-4 -2,-6 -4,-7 -2,-2 -5,-2 -8,-2 -6,0 -13,2 -20,6l-5 -12 0 0z"/>
   <path id="_29" class="fil1" d="M2481 692l-6 35 -14 0 15 -86c1,-4 1,-8 1,-12 0,-3 0,-6 -1,-11l13 -2c1,1 1,4 2,10 3,-2 5,-4 9,-7 5,-2 8,-3 12,-3 19,0 29,10 29,29 0,11 -2,20 -6,28 -4,8 -9,14 -15,19 -7,4 -14,6 -22,6 -3,0 -7,-1 -11,-2 -3,-1 -5,-2 -6,-4l0 0zm2 -11c0,1 2,2 5,3 2,1 4,2 8,2 9,0 17,-3 23,-10 5,-7 8,-17 8,-29 0,-13 -7,-19 -20,-19 -1,0 -2,0 -4,1 -1,0 -3,1 -4,1 -1,1 -3,2 -4,2 0,1 -1,1 -3,3 -1,1 -1,1 -2,2 0,0 -1,3 -2,9l-5 35 0 0z"/>
   <path id="_30" class="fil1" d="M2548 727l0 -14c7,0 12,-1 17,-2 4,-2 8,-6 11,-15 -7,0 -12,-6 -15,-19l-9 -60 16 0 7 57c1,7 3,9 6,9l28 -66 15 0 -37 87c-5,8 -9,15 -14,18 -6,3 -14,5 -25,5l0 0z"/>
   <path id="_31" class="fil1" d="M2630 620c10,-3 18,-4 28,-4 6,0 12,1 16,4 4,5 7,9 7,14 0,10 -6,18 -17,21 8,3 12,9 12,16 0,8 -2,14 -8,20 -6,4 -15,7 -25,7 -11,0 -19,-2 -26,-6l7 -14c6,5 14,8 21,8 5,0 9,-1 13,-4 3,-2 5,-6 5,-11 0,-7 -5,-11 -16,-11 -3,0 -6,0 -8,0l2 -10c1,0 4,0 8,0 6,0 11,-1 13,-4 3,-3 5,-6 5,-9 0,-4 -1,-6 -3,-7 -2,-2 -5,-3 -10,-3 -6,0 -12,2 -19,6l-5 -13 0 0z"/>
   <path id="_32" class="fil1" d="M2689 667c0,-9 2,-16 5,-25 4,-8 8,-14 16,-19 6,-5 13,-7 22,-7 9,0 16,2 21,8 5,5 8,12 8,21 0,14 -4,27 -13,37 -7,11 -17,16 -30,16 -9,0 -17,-3 -22,-8 -4,-6 -7,-13 -7,-23l0 0zm15 -1c0,14 5,20 16,20 8,0 14,-4 19,-13 5,-7 7,-17 7,-27 0,-13 -5,-19 -16,-19 -8,0 -14,4 -19,12 -5,8 -7,17 -7,27z"/>
   <path id="_33" class="fil1" d="M2837 636c0,4 -2,8 -5,13 -3,3 -7,5 -14,7 6,1 10,3 13,7 2,2 3,6 3,9 0,8 -3,13 -9,19 -7,4 -15,7 -27,7 -6,0 -11,-1 -16,-2 -5,-1 -10,-2 -12,-3 -1,-1 -2,-2 -2,-3 0,-1 1,-8 3,-21 4,-15 6,-24 6,-26 2,-5 3,-10 6,-13 2,-3 5,-6 8,-8 3,-3 7,-5 11,-5 3,-1 7,-2 11,-2 8,0 14,2 18,5 4,5 6,9 6,16l0 0zm-50 15l14 0c15,0 24,-5 24,-14 0,-4 -1,-6 -3,-8 -3,-2 -6,-3 -10,-3 -13,0 -22,8 -25,25l0 0zm-5 32c1,1 3,2 6,3 3,0 7,1 12,1 6,0 11,-1 15,-4 4,-2 7,-5 7,-11 0,-3 -3,-6 -5,-8 -3,-2 -7,-4 -12,-4l-19 0 -4 23 0 0z"/>
   <path class="fil2" d="M762 315c14,0 24,-4 33,-9 7,-6 13,-12 17,-17 5,-8 8,-15 10,-24 2,-9 4,-20 5,-30 2,-10 3,-19 4,-27 0,-9 0,-15 -2,-23 -1,-7 -4,-12 -7,-16 -3,-3 -7,-7 -12,-9 -4,-1 -8,-3 -11,-3 -4,0 -7,-1 -8,-1l-58 2c0,0 -2,10 -3,14l-22 143 54 0 0 0zm-84 200l-123 0 59 -385 10 -63 69 0c0,0 148,-1 155,-1 7,1 16,2 24,4 8,3 17,7 25,11 8,5 15,11 21,20 7,8 13,18 16,29 3,12 4,23 5,34 0,11 0,22 -1,33 -1,11 -2,20 -3,28 -1,8 -2,17 -6,28 -2,12 -5,24 -8,36 -3,13 -8,25 -13,36 -7,13 -13,24 -20,34 -10,11 -19,19 -30,26 -17,10 -42,20 -81,20l-83 0 -16 110 0 0z"/>
   <path class="fil2" d="M1460 323c0,0 133,2 157,2 19,2 24,-8 25,-19 3,-22 -63,-33 -113,-56 -17,-8 -36,-23 -43,-37 -3,-9 -5,-17 -5,-28 0,-11 0,-17 2,-26 1,-11 4,-22 8,-31 4,-11 11,-24 18,-34 22,-25 76,-29 93,-29l152 3 -22 78c0,0 -82,-5 -133,0 -9,1 -17,3 -19,7 -4,5 -4,15 0,19 18,21 97,45 109,50 20,7 37,21 42,33 6,11 10,22 9,35 0,12 -2,22 -4,30 -1,13 -4,23 -9,36 -7,14 -15,25 -28,34 -10,7 -19,12 -30,13 -9,2 -19,3 -26,3l-193 0 10 -83 0 0z"/>
   <path class="fil2" d="M1766 323c0,0 106,1 131,1 19,1 23,-10 24,-18 4,-23 -63,-33 -113,-56 -17,-8 -35,-21 -43,-37 -3,-9 -5,-17 -5,-28 0,-11 0,-17 2,-26 1,-11 4,-22 7,-32 5,-10 11,-20 17,-30 12,-14 23,-22 37,-25 12,-5 13,-5 31,-5l169 -1 -15 80c0,0 -80,-4 -129,0 -10,1 -17,3 -20,7 -3,4 -4,15 0,19 19,21 96,45 109,50 20,7 37,20 43,32 6,12 9,23 8,36 0,12 -2,22 -3,30 -7,38 -31,86 -94,86l-167 -1 11 -82 0 0z"/>
   <path class="fil2" d="M969 209c1,-9 2,-20 4,-29 2,-16 6,-27 11,-38 4,-10 7,-16 14,-26 7,-9 13,-14 22,-22 11,-8 18,-12 30,-17 11,-4 22,-5 33,-8 12,-2 28,-4 39,-4 10,-1 24,-1 31,-1l83 2c-15,21 -27,43 -43,79l-14 -1c-18,0 -28,2 -34,4 -12,3 -22,6 -34,18 -9,9 -16,27 -21,38 -3,12 -8,29 -9,38l-24 163 -119 0 31 -196 0 0z"/>
   <path class="fil2" d="M1416 405l-108 0c-9,0 -17,0 -26,-1 -10,0 -20,-2 -30,-4 -9,-3 -17,-6 -26,-13 -8,-5 -15,-13 -22,-24 -2,-3 -4,-7 -6,-14 -2,-6 -4,-15 -5,-26 -2,-11 -2,-23 -2,-39 1,-15 3,-33 6,-54 5,-35 14,-62 22,-82 30,-68 76,-83 125,-83 35,0 139,2 139,2l-29 78 -38 -2c-83,1 -96,13 -102,58l126 0 -11 67 -124 0c-7,42 22,54 73,55 20,1 51,0 51,0l-13 82 0 0z"/>
   <path class="fil2" d="M255 418c-321,75 -256,-254 -210,-307 36,-41 60,-49 126,-48 42,0 65,3 65,3l43 79c0,0 -17,-1 -31,-2 -79,0 -103,12 -109,57l123 0 -12 67 -121 0c-5,43 61,102 200,22 123,-77 264,-230 264,-230 0,0 -142,314 -338,359l0 0z"/>
   <path class="fil2" d="M392 301l-125 -235c29,0 98,0 108,0 14,0 40,18 54,42 23,41 64,113 64,113l-101 80 0 0z"/>
   <path class="fil2" d="M452 406l-21 -36c0,0 -1,-33 71,-125l87 161 -137 0z"/>
   <path class="fil2" d="M2439 349c-6,-17 -9,-34 -9,-56 0,-16 3,-40 8,-69l29 -158 108 0 -30 159c-6,25 -7,42 -8,50 -2,16 6,34 20,34 17,0 25,-4 33,-27 7,-22 38,-216 38,-216l107 0c0,0 -40,219 -47,244 -10,36 -28,106 -146,104 -57,-1 -89,-23 -103,-65l0 0zm-280 56l32 -196c1,-9 2,-20 4,-29 2,-16 5,-27 9,-38 5,-10 8,-16 15,-26 7,-9 12,-14 23,-22 10,-8 17,-12 29,-17 11,-4 22,-5 33,-8 12,-2 29,-4 39,-4 9,0 23,-1 26,-1l71 2 -14 79 -25 -1c-18,0 -29,2 -36,4 -10,3 -21,6 -32,18 -10,9 -17,27 -21,38 -3,12 -9,29 -10,38l-24 163 -119 0 0 0zm617 -13l49 -310c5,-50 -4,-88 -89,-88l-525 0c-49,0 -93,41 -98,90l-46 308c-5,50 31,91 80,91l530 0c54,1 86,-26 99,-91l0 0z"/>
  </g>
 </g>
</svg>
