<?xml version="1.0" encoding="utf-8"?>
<!-- Generator: Adobe Illustrator 19.1.0, SVG Export Plug-In . SVG Version: 6.00 Build 0)  -->
<svg version="1.1" id="Layer_1" xmlns="http://www.w3.org/2000/svg" xmlns:xlink="http://www.w3.org/1999/xlink" x="0px" y="0px"
	 viewBox="0 0 36 36" style="enable-background:new 0 0 36 36;" xml:space="preserve">
<style type="text/css">
	.st0{fill:#FFB41F;}
	.st1{fill:#1F4D6D;}
	.st2{fill:#FFFFFF;}
	.st3{fill:#EC7F3B;}
	.st4{fill:#44AB9E;}
	.st5{fill:none;stroke:#FFFFFF;stroke-width:1.0813;stroke-miterlimit:10;}
	.st6{fill:#99E0D4;stroke:#44AB9E;stroke-miterlimit:10;}
	.st7{fill:none;stroke:#FFFFFF;stroke-width:1.1;stroke-miterlimit:10;}
	.st8{fill:#E9FFFB;}
	.st9{fill:#1F4D6D;stroke:#1F4D6D;stroke-miterlimit:10;}
	.st10{fill:#99E0D4;}
</style>
<g>
	<path class="st0" d="M-647-90c0-22.1-17.9-40-40-40s-40,17.9-40,40c0,20.1,14.8,36.7,34,39.6l6,10.4l6-10.4
		C-661.7-53.3-647-70-647-90z"/>
	<g>
		<g>
			<path class="st1" d="M-665.9-74.2h-40.6c-0.8,0-1.4-0.6-1.4-1.4v-17.5c0-0.8,0.6-1.4,1.4-1.4s1.4,0.6,1.4,1.4V-77h37.8v-16.1
				c0-0.8,0.6-1.4,1.4-1.4s1.4,0.6,1.4,1.4v17.5C-664.5-74.8-665.1-74.2-665.9-74.2z"/>
		</g>
		<g>
			<g>
				<g>
					<rect x="-688.5" y="-105.9" class="st2" width="4.7" height="13.6"/>
				</g>
				<g>
					<g>
						<polygon class="st2" points="-693.9,-94.6 -686.2,-81.3 -678.5,-94.6 						"/>
					</g>
				</g>
			</g>
		</g>
	</g>
</g>
<g>
	<path class="st3" d="M-723,146.3c0-22.1-17.9-40-40-40s-40,17.9-40,40c0,20.1,14.8,36.7,34,39.6l6,10.4l6-10.4
		C-737.7,183-723,166.4-723,146.3z"/>
	<g>
		<path class="st2" d="M-763,130.2c0,0-10.4,0.1-18,2.9c-0.5,0.2-0.9,0.5-1.1,1c-0.9,1.8-2.9,6.8-1.1,10c1.3,2.4,8.9,0.9,9-2.8
			c0,0-1.1-5.3,3.2-6.5s8-1.1,8-1.1s3.6-0.1,8,1.1s3.2,6.5,3.2,6.5c0.1,3.7,7.7,5.1,9,2.8c1.8-3.2-0.2-8.2-1.1-10
			c-0.2-0.5-0.6-0.8-1.1-1C-752.6,130.3-763,130.2-763,130.2z"/>
		<path class="st4" d="M-751.7,140.6c0,0,0.1,0.1,0.3,0.3c1,0.8,4.3,3.2,9.2,1.5l-1.1,2.3l-3.3,0.5l-3.2-1l-1.9-1.8"/>
		<path class="st2" d="M-777.2,164.7c-1,0-1.7-0.8-1.7-1.7v-6.2c0-0.3,0.1-0.6,0.3-0.9l7.5-12.2c0.2-0.3,0.3-0.6,0.3-0.9v-2.9
			c0-1,0.8-1.7,1.7-1.7h0.7c1,0,1.7,0.8,1.7,1.7v0c0,1,0.8,1.7,1.7,1.7h2.1h2.1c1,0,1.7-0.8,1.7-1.7v0c0-1,0.8-1.7,1.7-1.7h0.7
			c1,0,1.7,0.8,1.7,1.7v2.9c0,0.3,0.1,0.6,0.3,0.9l7.5,12.2c0.2,0.3,0.3,0.6,0.3,0.9v6.2c0,1-0.8,1.7-1.7,1.7"/>
		<path class="st4" d="M-774.4,140.6c0,0-0.1,0.1-0.3,0.3c-1,0.8-4.3,3.2-9.2,1.5l1.1,2.3l3.3,0.5l3.2-1l1.9-1.8"/>
		<path class="st2" d="M-747.7,164.7c0.3,0,0.5-0.2,0.5-0.5v-5.9c0-0.2-0.1-0.4-0.3-0.4v-1c0,0-0.1,1-1.7,1c-0.1,0-0.2,0-0.3,0h-27
			c-0.1,0-0.2,0-0.3,0c-1.6,0-1.7-1-1.7-1v1c-0.2,0.1-0.3,0.2-0.3,0.4v5.9c0,0.3,0.2,0.5,0.5,0.5"/>
		<path class="st5" d="M-777.2,164.7c-1,0-1.7-0.8-1.7-1.7v-6.2c0-0.3,0.1-0.6,0.3-0.9l7.5-12.2c0.2-0.3,0.3-0.6,0.3-0.9v-2.9
			c0-1,0.8-1.7,1.7-1.7h0.7c1,0,1.7,0.8,1.7,1.7v0c0,1,0.8,1.7,1.7,1.7h2.1h2.1c1,0,1.7-0.8,1.7-1.7v0c0-1,0.8-1.7,1.7-1.7h0.7
			c1,0,1.7,0.8,1.7,1.7v2.9c0,0.3,0.1,0.6,0.3,0.9l7.5,12.2c0.2,0.3,0.3,0.6,0.3,0.9v6.2c0,1-0.8,1.7-1.7,1.7H-777.2z"/>
		<circle class="st0" cx="-758.2" cy="146.7" r="1.4"/>
		<circle class="st0" cx="-758.2" cy="150.2" r="1.4"/>
		<circle class="st0" cx="-758.2" cy="153.6" r="1.4"/>
		<circle class="st0" cx="-763" cy="146.7" r="1.4"/>
		<circle class="st0" cx="-763" cy="150.2" r="1.4"/>
		<circle class="st0" cx="-763" cy="153.6" r="1.4"/>
		<circle class="st0" cx="-767.8" cy="146.7" r="1.4"/>
		<circle class="st0" cx="-767.8" cy="150.2" r="1.4"/>
		<circle class="st0" cx="-767.8" cy="153.6" r="1.4"/>
		<path class="st5" d="M-763,130.2c0,0-10.4,0.1-18,2.9c-0.5,0.2-0.9,0.5-1.1,1c-0.9,1.8-2.9,6.8-1.1,10c1.3,2.4,8.9,0.9,9-2.8
			c0,0-1.1-5.3,3.2-6.5s8-1.1,8-1.1s3.6-0.1,8,1.1s3.2,6.5,3.2,6.5c0.1,3.7,7.7,5.1,9,2.8c1.8-3.2-0.2-8.2-1.1-10
			c-0.2-0.5-0.6-0.8-1.1-1C-752.6,130.3-763,130.2-763,130.2z"/>
	</g>
</g>
<g>
	<path class="st0" d="M-553.1,283.2c0-22.1-17.9-40-40-40s-40,17.9-40,40c0,20.1,14.8,36.7,34,39.6l6,10.4l6-10.4
		C-567.9,319.8-553.1,303.2-553.1,283.2z"/>
	<g>
		<g>
			<path class="st2" d="M-569.5,284.6c-0.6-1.3-1.5-2.4-2.6-3.4c0.1-0.6,0.2-1.2,0.2-1.7c-0.1-3.8-1.4-6.9-3.9-9.4
				c-2.5-2.5-5.6-3.8-9.4-3.9c-2.2,0-4.3,0.5-6.3,1.5s-3.5,2.5-4.8,4.3c-1.2-0.6-2.6-1-4-1c-2.3,0-4.3,0.8-5.9,2.3
				c-1.6,1.5-2.5,3.4-2.8,5.6c-2.4,0.5-4.3,1.6-5.9,3.4c-1.5,1.8-2.3,3.9-2.3,6.4c0.1,2.8,1,5.1,2.9,7s4.2,2.8,7,2.9h1.7h9h9.4h7.7
				h1.2c2.8-0.1,5.1-1,7-2.9c1.8-1.9,2.8-4.2,2.9-7C-568.6,287.2-568.9,285.9-569.5,284.6z"/>
		</g>
		<g>
			<g>
				<line class="st1" x1="-602.1" y1="279.5" x2="-582" y2="279.5"/>
			</g>
			<g>
				<g>
					<g>
						<rect x="-602.1" y="277.9" class="st1" width="13.7" height="3.1"/>
					</g>
					<g>
						<g>
							<polygon class="st1" points="-589.7,283.9 -582,279.5 -589.7,275 							"/>
						</g>
					</g>
				</g>
			</g>
		</g>
		<g>
			<g>
				<line class="st1" x1="-582" y1="289.9" x2="-602.1" y2="289.9"/>
			</g>
			<g>
				<g>
					<rect x="-595.7" y="288.4" class="st1" width="13.7" height="3.1"/>
				</g>
				<g>
					<g>
						<g>
							<polygon class="st1" points="-594.4,285.5 -602.1,289.9 -594.4,294.3 							"/>
						</g>
					</g>
				</g>
			</g>
		</g>
	</g>
</g>
<g>
	<path class="st3" d="M-723,146.3c0-22.1-17.9-40-40-40s-40,17.9-40,40c0,20.1,14.8,36.7,34,39.6l6,10.4l6-10.4
		C-737.7,183-723,166.4-723,146.3z"/>
	<g>
		<path class="st2" d="M-773.9,155.4c0,0,5.3,8.2,11.4,12.7c0.4,0.3,0.9,0.4,1.3,0.3c1.9-0.2,6.8-1.1,8.5-4.2
			c1.2-2.2-3.8-7.5-6.7-5.7c0,0-3.6,3.5-6.7,0.7c-3.1-2.8-4.8-5.7-4.8-5.7s-1.9-2.8-3.2-6.8c-1.3-4,3.5-5.8,3.5-5.8
			c2.9-1.9,0.2-8.7-2.3-8.5c-3.4,0.2-6.3,4.3-7.3,5.9c-0.3,0.4-0.3,0.9-0.2,1.3C-779.1,147.1-773.9,155.4-773.9,155.4z"/>
		<path class="st6" d="M-771.4,141.2c0,0,0-0.1,0.1-0.4c0.2-1.2,0.3-5-3.5-8l2.4-0.3l2.1,2.4l0.8,3l-0.5,2.4"/>
		<path class="st6" d="M-760,159.1c0,0,0.1,0,0.4,0.1c1.1,0.3,4.6,1.8,5.8,6.5l1.3-2l-1.3-2.9l-2.4-2l-2.4-0.6"/>
		<path class="st5" d="M-773.9,155.4c0,0,5.3,8.2,11.4,12.7c0.4,0.3,0.9,0.4,1.3,0.3c1.9-0.2,6.8-1.1,8.5-4.2
			c1.2-2.2-3.8-7.5-6.7-5.7c0,0-3.6,3.5-6.7,0.7c-3.1-2.8-4.8-5.7-4.8-5.7s-1.9-2.8-3.2-6.8c-1.3-4,3.5-5.8,3.5-5.8
			c2.9-1.9,0.2-8.7-2.3-8.5c-3.4,0.2-6.3,4.3-7.3,5.9c-0.3,0.4-0.3,0.9-0.2,1.3C-779.1,147.1-773.9,155.4-773.9,155.4z"/>
	</g>
	<path class="st0" d="M-767.4,127c-0.2,0-0.4,0-0.5,0.1c-0.1,0.1-0.2,0.2-0.3,0.4c0,0.2,0,0.4,0.1,0.5c0.1,0.1,0.2,0.2,0.4,0.3
		c0.7,0.1,1.4,0.4,2.1,0.8c0.6,0.4,1.2,0.9,1.6,1.5c0.4,0.6,0.7,1.3,0.9,2c0.2,0.7,0.2,1.5,0,2.2c0,0.2,0,0.4,0.1,0.5
		c0.1,0.1,0.2,0.2,0.4,0.3c0.2,0,0.4,0,0.5-0.1c0.1-0.1,0.2-0.2,0.3-0.4c0.2-0.9,0.1-1.8,0-2.7c-0.2-0.9-0.6-1.7-1.1-2.5
		c-0.5-0.8-1.2-1.4-2-1.9C-765.6,127.5-766.4,127.2-767.4,127z"/>
	<path class="st0" d="M-759.2,127.4c0.9,1.3,1.5,2.6,1.8,4.1c0.3,1.5,0.3,3,0,4.5c0,0.2-0.1,0.3-0.3,0.4c-0.1,0.1-0.3,0.1-0.5,0.1
		c-0.2,0-0.3-0.1-0.4-0.3c-0.1-0.1-0.1-0.3-0.1-0.5c0.2-1.3,0.2-2.7-0.1-3.9c-0.3-1.3-0.8-2.5-1.6-3.6c-0.8-1.1-1.7-2-2.8-2.7
		c-1.1-0.7-2.3-1.2-3.7-1.4c-0.2-0.1-0.3-0.2-0.4-0.3c-0.1-0.1-0.1-0.3-0.1-0.5c0-0.2,0.1-0.3,0.3-0.4c0.1-0.1,0.3-0.1,0.5-0.1
		c1.5,0.3,2.9,0.8,4.2,1.6C-761.1,125.1-760.1,126.1-759.2,127.4z"/>
</g>
<g>
	<path class="st0" d="M-639.1,147.3c0-22.1-17.9-40-40-40s-40,17.9-40,40c0,20.1,14.8,36.7,34,39.5l6,10.3l6-10.3
		C-653.9,184-639.1,167.4-639.1,147.3z"/>
	<g>
		<g>
			<path class="st2" d="M-679.1,164.6c-9.4,0-17-7.6-17-17c0-7.1,4.3-13.3,10.8-15.8c0.6-0.2,1.3,0.1,1.6,0.7
				c0.2,0.6-0.1,1.3-0.7,1.6c-5.6,2.2-9.3,7.5-9.3,13.5c0,8,6.5,14.5,14.5,14.5c8,0,14.5-6.5,14.5-14.5c0-6-3.6-11.3-9.3-13.5
				c-0.6-0.2-0.9-1-0.7-1.6c0.2-0.6,1-0.9,1.6-0.7c6.6,2.6,10.8,8.8,10.8,15.8C-662.1,157-669.8,164.6-679.1,164.6z"/>
		</g>
		<g>
			<g>
				<line class="st0" x1="-679.1" y1="126" x2="-679.1" y2="148.2"/>
			</g>
			<g>
				<path class="st2" d="M-679.1,149.4c-0.7,0-1.2-0.6-1.2-1.2V126c0-0.7,0.6-1.2,1.2-1.2c0.7,0,1.2,0.6,1.2,1.2v22.2
					C-677.9,148.9-678.4,149.4-679.1,149.4z"/>
			</g>
		</g>
	</g>
</g>
<g>
	<path class="st3" d="M-713.4,17.3c0-22.1-17.9-40-40-40c-22.1,0-40,17.9-40,40c0,20.9,16,38,36.4,39.9l5.8,10l6.1-10.7
		C-727,52.6-713.4,36.5-713.4,17.3z"/>
	<g>
		<path class="st7" d="M-743.3,32.7v3.6c0,4.5-3.6,8.1-8.1,8.1s-8.1-3.6-8.1-8.1V3.4c0-4.5-3.6-8.1-8.1-8.1s-8.1,3.6-8.1,8.1v12.6"
			/>
		<path class="st2" d="M-742.5,29.5h-1.6c-0.5,0-0.8,0.4-0.8,0.8v2.9c0,0.5,0.4,0.8,0.8,0.8h1.6c0.5,0,0.8-0.4,0.8-0.8v-2.9
			C-741.7,29.9-742.1,29.5-742.5,29.5z"/>
		<g>
			<path class="st2" d="M-736.6,30.4l-13.4,0c-1.3,0-2.4-1.1-2.4-2.4l-0.1-27.8c0-1.3,1.1-2.4,2.4-2.4l13.4,0c1.3,0,2.4,1.1,2.4,2.4
				l0.1,27.8C-734.2,29.4-735.3,30.4-736.6,30.4z"/>
			
				<rect x="-751.3" y="1.6" transform="matrix(1 -3.213639e-003 3.213639e-003 1 -4.636859e-002 -2.3888)" class="st4" width="16" height="23.2"/>
			<polygon class="st8" points="-735.4,4.1 -751.3,10.2 -751.3,13.9 -735.4,7.8 			"/>
			<polygon class="st8" points="-735.4,9.2 -751.3,15.3 -751.3,16.1 -735.4,10 			"/>
			<circle class="st3" cx="-743.3" cy="27.8" r="1.4"/>
			<path class="st4" d="M-741.9-0.3l-2.9,0c-0.1,0-0.2,0.1-0.2,0.2v0c0,0.1,0.1,0.2,0.2,0.2l2.9,0c0.1,0,0.2-0.1,0.2-0.2v0
				C-741.7-0.2-741.8-0.3-741.9-0.3z"/>
			<circle class="st4" cx="-745.9" cy="-0.1" r="0.2"/>
		</g>
		<rect x="-777.9" y="18.4" class="st0" width="4.7" height="5.1"/>
		<path class="st2" d="M-772.4,20.9v-6.8c0-0.5-0.4-0.9-0.9-0.9h-4.5c-0.5,0-0.9,0.4-0.9,0.9v6.8H-772.4z"/>
	</g>
</g>
<g>
	<path class="st0" d="M-723.2,147.6c0-22-17.8-39.8-39.8-39.8s-39.8,17.8-39.8,39.8c0,20.5,15.5,37.4,35.4,39.6l4.5,7.7l4.5-7.7
		C-738.7,185-723.2,168.1-723.2,147.6z"/>
	<g>
		<path class="st1" d="M-744.6,161.6h-36.8v-16c0-0.6,0.4-1,1-1s1,0.4,1,1v14h32.8v-14c0-0.6,0.4-1,1-1s1,0.4,1,1V161.6z"/>
	</g>
	<g>
		<g>
			<rect x="-765" y="144.1" class="st2" width="4" height="11.6"/>
		</g>
		<g>
			<g>
				<polygon class="st2" points="-756.4,146 -763,134.6 -769.6,146 				"/>
			</g>
		</g>
	</g>
</g>
<g>
	<path class="st0" d="M-723.2,147.6c0-22-17.8-39.8-39.8-39.8c-22,0-39.8,17.8-39.8,39.8c0,20.5,15.5,37.4,35.4,39.6l4.4,7.7
		l4.5-7.7C-738.6,184.9-723.2,168.1-723.2,147.6z"/>
	<g>
		<g>
			<path class="st1" d="M-763,167.7c-5.7-0.1-10.5-2.1-14.3-5.9c-3.8-3.8-5.8-8.6-5.9-14.3c0.1-5.7,2.1-10.5,5.9-14.3
				c3.8-3.8,8.5-5.8,14.3-5.9c5.7,0.1,10.5,2.1,14.3,5.9c3.8,3.8,5.8,8.5,5.9,14.3c-0.1,5.7-2.1,10.5-5.9,14.3
				C-752.5,165.6-757.2,167.6-763,167.7z M-763,128.9c-5.3,0.1-9.6,2-13.2,5.5c-3.5,3.5-5.3,7.9-5.5,13.2c0.1,5.3,2,9.6,5.5,13.2
				c3.5,3.5,7.9,5.3,13.2,5.5c5.3-0.1,9.6-2,13.2-5.5c3.5-3.5,5.3-7.9,5.5-13.2c-0.1-5.3-2-9.6-5.5-13.2
				C-753.3,130.9-757.7,129.1-763,128.9z M-749.7,149.6c0.1-0.4,0-0.7-0.2-0.9c-0.2-0.2-0.4-0.4-0.7-0.5c-0.3-0.1-0.6,0-0.9,0.2
				c-0.3,0.2-0.4,0.4-0.5,0.7c-0.6,2.6-1.9,4.7-3.9,6.4s-4.4,2.5-7.1,2.6c-2.6-0.1-5-0.9-6.9-2.4c-2-1.6-3.3-3.6-3.9-6.2
				c-0.1-0.3-0.3-0.6-0.5-0.7c-0.3-0.2-0.6-0.2-0.9-0.1c-0.3,0.1-0.6,0.2-0.7,0.5c-0.2,0.3-0.2,0.6-0.1,0.9c0.8,3.1,2.4,5.6,4.8,7.5
				c2.4,1.9,5.2,2.9,8.4,2.9c3.3-0.1,6.1-1.1,8.5-3.1C-752,155.4-750.4,152.8-749.7,149.6z M-764.4,140.2c0-0.3-0.1-0.6-0.3-0.8
				c-0.2-0.2-0.5-0.3-0.8-0.3c-0.3,0-0.6,0.1-0.8,0.3c-0.2,0.2-0.3,0.5-0.3,0.8s-0.1,0.6-0.3,0.8c-0.2,0.2-0.5,0.3-0.8,0.3
				s-0.6-0.1-0.8-0.3c-0.2-0.2-0.3-0.5-0.3-0.8s-0.1-0.6-0.3-0.8c-0.2-0.2-0.5-0.3-0.8-0.3c-0.3,0-0.6,0.1-0.8,0.3
				c-0.2,0.2-0.3,0.5-0.3,0.8c0,1,0.4,1.8,1,2.5c0.6,0.7,1.5,1,2.5,1c1,0,1.8-0.3,2.5-1C-764.7,142-764.4,141.2-764.4,140.2z
				 M-764.4,140.2c0-0.3-0.1-0.6-0.3-0.8c-0.2-0.2-0.5-0.3-0.8-0.3c-0.3,0-0.6,0.1-0.8,0.3c-0.2,0.2-0.3,0.5-0.3,0.8
				s-0.1,0.6-0.3,0.8c-0.2,0.2-0.5,0.3-0.8,0.3s-0.6-0.1-0.8-0.3c-0.2-0.2-0.3-0.5-0.3-0.8s-0.1-0.6-0.3-0.8
				c-0.2-0.2-0.5-0.3-0.8-0.3c-0.3,0-0.6,0.1-0.8,0.3c-0.2,0.2-0.3,0.5-0.3,0.8c0,1,0.4,1.8,1,2.5c0.6,0.7,1.5,1,2.5,1
				c1,0,1.8-0.3,2.5-1C-764.7,142-764.4,141.2-764.4,140.2z"/>
			<path class="st1" d="M-754.6,140.2c0-0.3-0.1-0.6-0.3-0.8c-0.2-0.2-0.5-0.3-0.8-0.3s-0.6,0.1-0.8,0.3c-0.2,0.2-0.3,0.5-0.3,0.8
				s-0.1,0.6-0.3,0.8c-0.2,0.2-0.5,0.3-0.8,0.3c-0.3,0-0.6-0.1-0.8-0.3c-0.2-0.2-0.3-0.5-0.3-0.8s-0.1-0.6-0.3-0.8
				c-0.2-0.2-0.5-0.3-0.8-0.3c-0.3,0-0.6,0.1-0.8,0.3c-0.2,0.2-0.3,0.5-0.3,0.8c0,1,0.4,1.8,1,2.5c0.6,0.7,1.5,1,2.5,1
				c1,0,1.8-0.3,2.5-1C-754.9,142-754.6,141.2-754.6,140.2z"/>
		</g>
	</g>
</g>
<g>
	<path class="st3" d="M-723.2,147.6c0-22-17.8-39.8-39.8-39.8s-39.8,17.8-39.8,39.8c0,20.5,15.5,37.4,35.4,39.6l4.5,7.7l4.5-7.7
		C-738.7,185-723.2,168.1-723.2,147.6z"/>
	<path class="st0" d="M-754.8,125.9h-16.3c-3.1,0-5.7,2.6-5.7,5.7v23.7c0,3.1,2.6,5.7,5.7,5.7h16.3c3.1,0,5.7,4.4,5.7,1.3v-30.7
		C-749.1,128.4-751.7,125.9-754.8,125.9z"/>
	<path class="st2" d="M-742.7,145.9c0-2.4-2-4.4-4.4-4.4c-2.4,0-4.4,2-4.4,4.4c0,1.4,0.7,2.7,1.7,3.5h-26.4c1-0.8,1.7-2.1,1.7-3.5
		c0-2.4-2-4.4-4.4-4.4c-2.4,0-4.4,2-4.4,4.4c0,2,1.3,3.6,3.1,4.2c-0.2,0.3-0.3,0.6-0.3,0.9v3.3c0,0.9,0.7,1.6,1.6,1.6h0.2
		c-1,0-1.8,0.8-1.8,1.8v4.7c0,1,0.8,1.8,1.8,1.8h31.5c1,0,1.8-0.8,1.8-1.8v-4.7c0-1-0.8-1.8-1.8-1.8h0.2c0.9,0,1.6-0.7,1.6-1.6V151
		c0-0.3-0.1-0.6-0.3-0.9C-744,149.5-742.7,147.9-742.7,145.9z"/>
	<g>
		<circle class="st9" cx="-768" cy="133.7" r="1.2"/>
		<circle class="st9" cx="-758" cy="133.7" r="1.2"/>
		<circle class="st9" cx="-768" cy="140.9" r="1.2"/>
		<circle class="st9" cx="-758" cy="140.9" r="1.2"/>
	</g>
	<g>
		<polygon class="st1" points="-775.4,169.8 -777.1,169.8 -777.8,164.1 -774.6,164.1 		"/>
		<polygon class="st1" points="-749,169.8 -750.6,169.8 -751.4,164.1 -748.2,164.1 		"/>
	</g>
</g>
<g>
	<circle class="st0" cx="-389.2" cy="-114.4" r="16.8"/>
	<g>
		<path class="st2" d="M-384.4-102.9l-9.4,0c-0.9,0-1.7-0.8-1.7-1.7l-0.1-19.6c0-0.9,0.8-1.7,1.7-1.7l9.4,0c0.9,0,1.7,0.8,1.7,1.7
			l0.1,19.6C-382.7-103.7-383.5-102.9-384.4-102.9z"/>
		
			<rect x="-394.8" y="-123.2" transform="matrix(1 -3.213639e-003 3.213639e-003 1 0.3677 -1.2512)" class="st4" width="11.2" height="16.3"/>
		<polygon class="st8" points="-383.6,-121.4 -394.8,-117.2 -394.8,-114.6 -383.6,-118.9 		"/>
		<polygon class="st8" points="-383.6,-117.9 -394.8,-113.6 -394.8,-113.1 -383.6,-117.3 		"/>
		<circle class="st3" cx="-389.1" cy="-104.8" r="1"/>
		<path class="st4" d="M-388.2-124.6l-2,0c-0.1,0-0.2,0.1-0.2,0.2v0c0,0.1,0.1,0.2,0.2,0.2l2,0c0.1,0,0.2-0.1,0.2-0.2v0
			C-388-124.5-388.1-124.6-388.2-124.6z"/>
		<circle class="st4" cx="-391" cy="-124.4" r="0.2"/>
	</g>
</g>
<g>
	<circle class="st0" cx="-388" cy="-58.8" r="16.8"/>
	<g>
		<path class="st2" d="M-395.1-56.5l-1.6-2.2h1.6l0.6,1l0.2,0.3l0.2-0.3l0.6-1h1.6l-1.6,2.2l1.6,2.3h-1.6l-0.7-1.1l-0.1-0.2
			l-0.1,0.2l-0.6,1.1h-1.7L-395.1-56.5z"/>
		<path class="st2" d="M-389.4-53.4c3.3,0,5.2-1.3,5.2-3.1c0-1.2-0.7-1.8-2.4-1.8c-0.9,0-1.9,0.3-2.8,0.6l-0.6-0.3l0.6-8.2h8.5
			l-0.3,2.9h-5.6l-0.3,2.9c0.8-0.2,1.6-0.4,2.4-0.4c2.8,0,4.3,1.6,4.3,4.2c0,3.5-3.2,5.8-8.2,5.8c-0.3,0-1,0-1.4-0.1l0-2.4
			C-390-53.4-389.7-53.4-389.4-53.4z"/>
	</g>
</g>
<g>
	<circle class="st3" cx="-62.5" cy="-102.9" r="16.8"/>
	<g>
		<path class="st2" d="M-60.5-102.9c0,0.4-0.1,0.8-0.3,1.2c-0.2,0.4-0.4,0.7-0.7,0.9v4.6c0,0.1,0,0.3-0.1,0.4
			c-0.1,0.1-0.2,0.1-0.4,0.1c-0.1,0-0.3,0-0.4-0.1c-0.1-0.1-0.1-0.2-0.1-0.4v0c-0.1,0-0.2-0.1-0.3-0.1l-3.5-2.2l-1.4-0.9h-1.8
			c-0.5,0-0.9-0.2-1.2-0.5c-0.3-0.3-0.5-0.7-0.5-1.2v-3.4c0-0.5,0.2-0.9,0.5-1.2s0.7-0.5,1.2-0.5h1.8l1.4-0.9l3.5-2.2
			c0.1-0.1,0.2-0.1,0.3-0.1v0c0-0.1,0-0.3,0.1-0.4c0.1-0.1,0.2-0.1,0.4-0.1c0.1,0,0.3,0,0.4,0.1c0.1,0.1,0.1,0.2,0.1,0.4v4.6
			c0.3,0.2,0.6,0.5,0.7,0.9C-60.6-103.7-60.5-103.3-60.5-102.9z"/>
		<path class="st0" d="M-68.3-105.6h-1.2c-0.3,0-0.5,0.1-0.7,0.3c-0.2,0.2-0.3,0.4-0.3,0.7v3.4c0,0.3,0.1,0.5,0.3,0.7
			s0.4,0.3,0.7,0.3h1.2V-105.6z"/>
		<path class="st2" d="M-58.6-106.7c-0.1-0.1-0.2-0.2-0.4-0.2c-0.1,0-0.2,0.1-0.3,0.2c-0.1,0.1-0.2,0.2-0.2,0.4c0,0.1,0,0.3,0.1,0.4
			c0.4,0.4,0.7,0.9,0.9,1.4c0.2,0.5,0.3,1,0.3,1.6c0,0.6-0.1,1.1-0.3,1.6c-0.2,0.5-0.5,1-0.9,1.4c-0.1,0.1-0.1,0.2-0.1,0.4
			s0.1,0.2,0.2,0.3c0.1,0.1,0.2,0.2,0.4,0.2c0.1,0,0.3,0,0.4-0.1c0.5-0.5,0.9-1.1,1.1-1.7c0.3-0.6,0.4-1.3,0.4-2s-0.1-1.4-0.4-2
			C-57.8-105.6-58.1-106.2-58.6-106.7z"/>
		<path class="st2" d="M-53.8-103c0,1.1-0.2,2.2-0.6,3.3c-0.4,1-1.1,2-1.9,2.8c-0.1,0.1-0.2,0.2-0.4,0.2c-0.1,0-0.3-0.1-0.3-0.2
			c-0.1-0.1-0.1-0.2-0.1-0.4c0-0.1,0-0.3,0.1-0.4c0.7-0.7,1.3-1.5,1.6-2.4c0.4-0.9,0.6-1.9,0.6-2.9c0-1-0.2-2-0.6-2.9
			c-0.4-0.9-0.9-1.7-1.6-2.4c-0.1-0.1-0.1-0.2-0.1-0.4c0-0.1,0-0.2,0.1-0.4c0.1-0.1,0.2-0.2,0.3-0.2c0.1,0,0.3,0.1,0.4,0.2
			c0.8,0.8,1.4,1.8,1.9,2.8C-54-105.2-53.8-104.1-53.8-103z"/>
	</g>
</g>
<g>
	<circle class="st3" cx="-331.8" cy="-54.3" r="16.8"/>
	<g>
		<path class="st2" d="M-342-54.3c0-3.4,2.3-5,5.2-5c2.5,0,3.9,1.5,5.1,3.1c1.1-1.5,2.8-3,5-3.1c3.5,0,5.1,2.4,5.1,4.6
			c0,3.1-2,5-5.3,5c-2.4,0-3.7-1.4-4.9-3c-1.1,1.5-2.8,2.9-5,3C-340.1-49.7-342-51.9-342-54.3z M-333.1-54.3c-0.9-1.4-2-3-3.6-3
			c-2.1,0-3,1.4-3,2.8c0,1.6,0.9,2.9,3,2.9C-335.2-51.6-334.1-52.7-333.1-54.3z M-326.5-51.6c1.6,0,2.4-1.4,2.4-2.9
			c0-1.5-1-2.8-3-2.8c-1.4,0-2.4,1.1-3.5,2.7C-329.6-53.2-328.3-51.6-326.5-51.6z"/>
	</g>
</g>
<g>
	<circle class="st3" cx="-143.2" cy="-121.4" r="16.8"/>
	<path class="st0" d="M-138.4-113.5v-6.9c0-0.2-0.1-0.3-0.2-0.5c-0.1-0.1-0.3-0.2-0.5-0.2h-8.4c-0.2,0-0.3,0.1-0.5,0.2
		c-0.1,0.1-0.2,0.3-0.2,0.5v6.9H-138.4z"/>
	<path class="st2" d="M-134.7-126.7v11.9c0,0.6-0.2,1-0.6,1.4c-0.4,0.4-0.8,0.6-1.4,0.6h-13.3c-0.6,0-1-0.2-1.4-0.6
		c-0.4-0.4-0.6-0.8-0.6-1.4V-128c0-0.6,0.2-1,0.6-1.4c0.4-0.4,0.8-0.6,1.4-0.6h11.9L-134.7-126.7z"/>
	<path class="st0" d="M-138.2-125.6c0,0.3-0.1,0.5-0.3,0.7s-0.4,0.3-0.7,0.3h-8.4c-0.3,0-0.5-0.1-0.7-0.3c-0.2-0.2-0.3-0.4-0.3-0.7
		v-3.8h-1.4c-0.4,0-0.7,0.1-0.9,0.4c-0.2,0.2-0.4,0.6-0.4,0.9v13.3c0,0.4,0.1,0.7,0.4,0.9c0.2,0.2,0.6,0.4,0.9,0.4h1.1v-6.9
		c0-0.4,0.1-0.7,0.4-0.9c0.3-0.3,0.6-0.4,0.9-0.4h8.4c0.4,0,0.7,0.1,0.9,0.4c0.3,0.3,0.4,0.6,0.4,0.9v6.9h1.1c0.4,0,0.7-0.1,0.9-0.4
		c0.2-0.2,0.4-0.6,0.4-0.9v-11.6L-138.2-125.6z"/>
	<path class="st0" d="M-147.9-125.6c0,0.1,0,0.2,0.1,0.2c0.1,0.1,0.1,0.1,0.2,0.1h1.2c0-0.1-0.1-0.2-0.1-0.3v-3.4h-1.4V-125.6z"/>
	<path class="st0" d="M-139.5-128.8c-0.1-0.1-0.2-0.1-0.3-0.1h-1c-0.1,0-0.2,0-0.3,0.1c-0.1,0.1-0.1,0.2-0.1,0.3v2.7
		c0,0.1,0,0.2,0.1,0.3c0.1,0.1,0.2,0.1,0.3,0.1h1c0.1,0,0.2,0,0.3-0.1c0.1-0.1,0.1-0.2,0.1-0.3v-2.7
		C-139.4-128.6-139.5-128.7-139.5-128.8z"/>
	<rect x="-147" y="-119.8" class="st3" width="7.5" height="0.9"/>
	<rect x="-147" y="-117.7" class="st3" width="7.5" height="0.9"/>
	<rect x="-147" y="-115.6" class="st3" width="5.5" height="0.9"/>
</g>
<g>
	<circle class="st0" cx="-436" cy="-31" r="16.8"/>
	<g>
		<path class="st3" d="M-437.9-34.2c-0.2,0-0.4,0.1-0.6,0.2c-0.2,0.2-0.2,0.4-0.2,0.6c0,0.2,0.1,0.4,0.2,0.6
			c0.2,0.2,0.4,0.2,0.6,0.2c0.2,0,0.4-0.1,0.6-0.2c0.2-0.2,0.2-0.4,0.2-0.6c0-0.2-0.1-0.4-0.2-0.6
			C-437.5-34.2-437.7-34.2-437.9-34.2z"/>
		<path class="st3" d="M-440.8-34.2c-0.2,0-0.4,0.1-0.6,0.2c-0.2,0.2-0.2,0.4-0.2,0.6c0,0.2,0.1,0.4,0.3,0.6
			c0.2,0.2,0.4,0.2,0.6,0.2c0.2,0,0.4-0.1,0.6-0.2c0.2-0.2,0.2-0.4,0.2-0.6c0-0.2-0.1-0.4-0.2-0.6
			C-440.3-34.2-440.5-34.2-440.8-34.2z"/>
		<path class="st3" d="M-435.1-34.2c-0.2,0-0.4,0.1-0.6,0.2c-0.2,0.2-0.2,0.4-0.2,0.6c0,0.2,0.1,0.4,0.2,0.6
			c0.2,0.2,0.4,0.2,0.6,0.2c0.2,0,0.4-0.1,0.6-0.2c0.2-0.2,0.2-0.4,0.2-0.6c0-0.2-0.1-0.4-0.2-0.6
			C-434.7-34.1-434.9-34.2-435.1-34.2z"/>
		<path class="st2" d="M-430.4-29.4l-0.3,1.7h-2h-4.2h-1v2.7c0,0.3,0.1,0.5,0.3,0.7c0.2,0.2,0.4,0.3,0.7,0.3h5l2.6,1.8l0-1.8h0.8
			c0.3,0,0.5-0.1,0.7-0.3c0.2-0.2,0.3-0.4,0.3-0.7v-5.6c0-0.3-0.1-0.5-0.3-0.7c-0.2-0.2-0.4-0.3-0.7-0.3h-2.2v1.8L-430.4-29.4z"/>
		<path class="st3" d="M-438.5-27.7v2.7c0,0.5,0.2,0.9,0.5,1.2c0.3,0.3,0.7,0.5,1.2,0.5h4.8l3.6,2.4l0-2.4h0c0.5,0,0.9-0.2,1.2-0.5
			c0.3-0.3,0.5-0.7,0.5-1.2v-5.6c0-0.5-0.2-0.9-0.5-1.2c-0.3-0.3-0.7-0.5-1.2-0.5h-2.2"/>
		<path class="st2" d="M-431.3-38.2c-0.4-0.4-0.9-0.6-1.4-0.6h-10.5c-0.6,0-1,0.2-1.4,0.6c-0.4,0.4-0.6,0.9-0.6,1.4v7.1
			c0,0.6,0.2,1,0.6,1.4c0.4,0.4,0.9,0.6,1.4,0.6h0.1l0,3l4.4-3h0.1h0.1h0.7h1h4.2c0.6,0,1-0.2,1.4-0.6c0.4-0.4,0.6-0.9,0.6-1.4v-0.1
			v-1.8v-0.7v-2.1v-2.4C-430.7-37.4-430.9-37.9-431.3-38.2z M-435.7-33.9c0.2-0.2,0.4-0.2,0.6-0.2c0.2,0,0.4,0.1,0.6,0.2
			c0.2,0.2,0.2,0.4,0.2,0.6c0,0.2-0.1,0.4-0.2,0.6c-0.2,0.2-0.4,0.2-0.6,0.2c-0.2,0-0.4-0.1-0.6-0.2c-0.2-0.2-0.2-0.4-0.2-0.6
			C-435.9-33.6-435.9-33.8-435.7-33.9z M-440.2-32.8c-0.2,0.2-0.4,0.2-0.6,0.2c-0.2,0-0.4-0.1-0.6-0.2c-0.2-0.2-0.2-0.4-0.3-0.6
			c0-0.2,0.1-0.4,0.2-0.6c0.2-0.2,0.4-0.2,0.6-0.2c0.2,0,0.4,0.1,0.6,0.2c0.2,0.2,0.2,0.4,0.2,0.6C-439.9-33.2-440-33-440.2-32.8z
			 M-438.8-33.4c0-0.2,0.1-0.4,0.2-0.6c0.2-0.2,0.4-0.2,0.6-0.2c0.2,0,0.4,0.1,0.6,0.2c0.2,0.2,0.2,0.4,0.2,0.6
			c0,0.2-0.1,0.4-0.2,0.6c-0.2,0.2-0.4,0.2-0.6,0.2c-0.2,0-0.4-0.1-0.6-0.2C-438.7-33-438.8-33.2-438.8-33.4z"/>
	</g>
</g>
<g>
	<circle class="st3" cx="-207.7" cy="-125.9" r="16.8"/>
	<path class="st2" d="M-213.8-128c-0.4-0.7-0.7-1.4-0.7-2.2v-0.3c0.1-1.1,0.5-2,1.3-2.7c0.8-0.7,1.7-1.1,2.8-1.1
		c1.1,0,2.1,0.4,2.9,1.2c0.8,0.8,1.2,1.7,1.2,2.9c0,0.7-0.2,1.3-0.5,1.9c-0.3,0.6-0.7,1.1-1.3,1.5l-0.3,0.2l-0.1,0
		c-0.1,0.1-0.2,0.1-0.3,0.1c0,0-0.1,0-0.1,0.1l-0.3,0.1l-0.1,0c-0.1,0-0.1,0-0.2,0l-0.2,0.1l-0.4,0.1l-0.4,0c-0.4,0-0.8-0.1-1.2-0.2
		l-0.3-0.1c0,0-0.1,0-0.1,0C-212.8-126.8-213.4-127.3-213.8-128z"/>
	<path class="st0" d="M-205.4-127.1c-0.3-0.5-0.5-1-0.5-1.6v-0.2c0-0.2,0.1-0.5,0.1-0.7c0.2-0.6,0.5-1.1,1-1.5
		c0.5-0.4,1.1-0.5,1.7-0.5c0.6,0,1.2,0.2,1.7,0.5c0.5,0.3,0.8,0.8,1.1,1.4c0.1,0.3,0.2,0.7,0.2,1v0.1c0,0.4-0.1,0.7-0.2,1.1
		c-0.2,0.5-0.6,0.9-1,1.3l-0.2,0.1l-0.1,0c0,0-0.1,0.1-0.2,0.1c0,0-0.1,0-0.1,0l-0.3,0.1c-0.1,0-0.1,0-0.1,0l0,0c0,0-0.1,0-0.1,0
		c-0.1,0-0.1,0-0.1,0h-0.1l-0.1,0l-0.3,0c-0.3,0-0.6-0.1-0.9-0.1c0,0-0.1,0-0.1,0c-0.1,0-0.1,0-0.2,0
		C-204.7-126.3-205.1-126.6-205.4-127.1z"/>
	<path class="st0" d="M-198.4-120.7c0-0.1,0-0.2,0-0.3c0-2.5-2.1-4.6-4.6-4.6s-4.6,2.1-4.6,4.6c0,0.1,0,0.2,0,0.3H-198.4z"/>
	<path class="st2" d="M-203.9-118.7c0-0.2,0-0.4,0-0.6c0-3.6-2.9-6.5-6.5-6.5c-3.6,0-6.5,2.9-6.5,6.5c0,0.2,0,0.4,0,0.6H-203.9z"/>
</g>
<g>
	<circle class="st3" cx="-280" cy="-121.7" r="16.8"/>
	<path class="st2" d="M-271.3-127.9c0.4,0.4,0.6,0.9,0.6,1.5v9.3c0,0.6-0.2,1.1-0.6,1.5c-0.4,0.4-0.9,0.6-1.5,0.6h-14.5
		c-0.6,0-1.1-0.2-1.5-0.6c-0.4-0.4-0.6-0.9-0.6-1.5v-9.3c0-0.6,0.2-1.1,0.6-1.5c0.4-0.4,0.9-0.6,1.5-0.6h14.5
		C-272.2-128.5-271.7-128.3-271.3-127.9z"/>
	<path class="st0" d="M-286.6-127.5c-0.1,0-0.2,0-0.3,0l-0.1,0l-0.1,0.1l-0.1,0.1c0,0-0.1,0-0.1,0.1c0,0-0.1,0.1-0.1,0.1
		c0,0-0.1,0.1-0.1,0.1c0,0-0.1,0.1-0.1,0.1c0,0,0,0.1-0.1,0.1c0,0,0,0.1-0.1,0.1c0,0,0,0.1-0.1,0.1c0,0,0,0.1,0,0.1l-0.1,0.1v0.1
		c0,0,0,0.1,0,0.1l7.8,4.8l7.8-4.8c0-0.1,0-0.1,0-0.1v-0.1l-0.1-0.1l0-0.1l-0.1-0.1l-0.1-0.1c0,0,0-0.1-0.1-0.1c0,0-0.1-0.1-0.1-0.1
		c0,0-0.1-0.1-0.1-0.1c0,0-0.1,0-0.1-0.1c0,0-0.1,0-0.1-0.1c0,0,0,0-0.1,0l-0.2-0.1c-0.1,0-0.2,0-0.3,0H-286.6z"/>
	<polygon class="st0" points="-288.5,-118.3 -282.9,-121.7 -288.5,-125.1 	"/>
	<path class="st0" d="M-273.6-115.9c0.1,0,0.2,0,0.3,0c0,0,0.1,0,0.1,0l0.1,0l0.1-0.1l0.1-0.1c0,0,0.1-0.1,0.1-0.1l0.1-0.1
		c0,0,0.1-0.1,0.1-0.1c0,0,0,0,0.1-0.1c0,0,0-0.1,0.1-0.1l0.1-0.1c0,0,0-0.1,0-0.1c0,0,0-0.1,0-0.1v-0.1c0,0,0-0.1,0-0.1l-6.2-3.8
		l-1.6,1l-1.6-1l-6.2,3.8c0,0,0,0.1,0,0.1v0.1c0,0,0,0.1,0.1,0.1c0,0,0,0.1,0,0.1l0.1,0.1c0,0,0.1,0.1,0.1,0.1c0,0,0,0.1,0,0.1
		c0,0,0.1,0.1,0.1,0.1l0.1,0.1l0.2,0.1l0.1,0.1l0.1,0c0,0,0.1,0,0.1,0c0.1,0,0.2,0,0.3,0H-273.6z"/>
	<polygon class="st0" points="-271.7,-125.1 -277.3,-121.7 -271.7,-118.3 	"/>
</g>
<g>
	<circle class="st0" cx="18" cy="18" r="16.8"/>
	<path class="st2" d="M26.7,11.8c0.4,0.4,0.6,0.9,0.6,1.5v9.3c0,0.6-0.2,1.1-0.6,1.5c-0.4,0.4-0.9,0.6-1.5,0.6H10.7
		c-0.6,0-1.1-0.2-1.5-0.6c-0.4-0.4-0.6-0.9-0.6-1.5v-9.3c0-0.6,0.2-1.1,0.6-1.5c0.4-0.4,0.9-0.6,1.5-0.6h14.5
		C25.7,11.2,26.3,11.4,26.7,11.8z"/>
	<path class="st3" d="M11.4,12.2c-0.1,0-0.2,0-0.3,0l-0.1,0l-0.1,0.1l-0.1,0.1c0,0-0.1,0-0.1,0.1c0,0-0.1,0.1-0.1,0.1
		c0,0-0.1,0.1-0.1,0.1c0,0-0.1,0.1-0.1,0.1c0,0,0,0.1-0.1,0.1c0,0,0,0.1-0.1,0.1c0,0,0,0.1-0.1,0.1c0,0,0,0.1,0,0.1l-0.1,0.1v0.1
		c0,0,0,0.1,0,0.1l7.8,4.8l7.8-4.8c0-0.1,0-0.1,0-0.1v-0.1l-0.1-0.1l0-0.1l-0.1-0.1l-0.1-0.1c0,0,0-0.1-0.1-0.1c0,0-0.1-0.1-0.1-0.1
		c0,0-0.1-0.1-0.1-0.1c0,0-0.1,0-0.1-0.1c0,0-0.1,0-0.1-0.1c0,0,0,0-0.1,0l-0.2-0.1c-0.1,0-0.2,0-0.3,0H11.4z"/>
	<polygon class="st3" points="9.5,21.4 15.1,18 9.5,14.6 	"/>
	<path class="st3" d="M24.4,23.8c0.1,0,0.2,0,0.3,0c0,0,0.1,0,0.1,0l0.1,0l0.1-0.1l0.1-0.1c0,0,0.1-0.1,0.1-0.1l0.1-0.1
		c0,0,0.1-0.1,0.1-0.1c0,0,0,0,0.1-0.1c0,0,0-0.1,0.1-0.1l0.1-0.1c0,0,0-0.1,0-0.1c0,0,0-0.1,0-0.1v-0.1c0,0,0-0.1,0-0.1l-6.2-3.8
		l-1.6,1l-1.6-1l-6.2,3.8c0,0,0,0.1,0,0.1v0.1c0,0,0,0.1,0.1,0.1c0,0,0,0.1,0,0.1l0.1,0.1c0,0,0.1,0.1,0.1,0.1s0,0.1,0,0.1
		c0,0,0.1,0.1,0.1,0.1l0.1,0.1l0.2,0.1l0.1,0.1l0.1,0c0,0,0.1,0,0.1,0c0.1,0,0.2,0,0.3,0H24.4z"/>
	<polygon class="st3" points="26.3,14.6 20.7,18 26.3,21.4 	"/>
</g>
<g>
	<circle class="st0" cx="-336.6" cy="-121.4" r="16.8"/>
	<path class="st3" d="M-330.3-127.9c1.7,1.7,2.6,3.8,2.7,6.4c-0.1,2.6-1,4.7-2.7,6.4c-1.7,1.7-3.8,2.6-6.4,2.7
		c-2.6-0.1-4.7-1-6.4-2.7c-1.7-1.7-2.6-3.8-2.7-6.4c0.1-2.6,1-4.7,2.7-6.4c1.7-1.7,3.8-2.6,6.4-2.7
		C-334.2-130.4-332-129.6-330.3-127.9z"/>
	<path class="st2" d="M-330.8-115.5c1.6-1.6,2.4-3.5,2.4-5.9c-0.1-2.4-0.9-4.3-2.4-5.9c-1.6-1.6-3.5-2.4-5.9-2.4
		c-2.4,0.1-4.3,0.9-5.9,2.4c-1.6,1.6-2.4,3.5-2.4,5.9c0.1,2.4,0.9,4.3,2.4,5.9s3.5,2.4,5.9,2.4C-334.4-113.2-332.4-114-330.8-115.5z
		"/>
	<path class="st3" d="M-335.8-121.3l0-0.1c0-0.3-0.1-0.5-0.4-0.7v-4.3c0-0.2-0.1-0.3-0.2-0.4s-0.2-0.2-0.4-0.2s-0.3,0.1-0.4,0.2
		s-0.2,0.2-0.2,0.4v4.3c-0.2,0.2-0.3,0.4-0.3,0.7c0,0.2,0.1,0.5,0.3,0.6c0.2,0.2,0.4,0.3,0.6,0.3l0.1,0l3.9,3.9
		c0.1,0.1,0.2,0.2,0.4,0.2c0.1,0,0.3-0.1,0.4-0.2c0.1-0.1,0.2-0.2,0.2-0.4s-0.1-0.3-0.2-0.4L-335.8-121.3z"/>
</g>
<g>
	<path class="st3" d="M-723.2,147.7c0-22-17.8-39.8-39.8-39.8s-39.8,17.8-39.8,39.8c0,20.5,15.5,37.4,35.5,39.6l4.3,7.5l4.3-7.5
		C-738.7,185.2-723.2,168.2-723.2,147.7z"/>
	<g>
		<path class="st2" d="M-757.9,129.3h-12c-2.2,0-4,1.8-4,4v3.6c0,2.2,1.8,4,4,4h12c2.2,0,4-1.8,4-4v-3.6
			C-753.9,131.1-755.7,129.3-757.9,129.3z M-756.7,137.9c0,1.1-0.9,2-2,2H-769c-1.1,0-2-0.9-2-2v-4.3c0-1.1,0.9-2,2-2h10.3
			c1.1,0,2,0.9,2,2V137.9z"/>
		<path class="st2" d="M-744.5,162.3h-38.7c-1.4,0-2.6-1.2-2.6-2.6V139c0-1.4,1.2-2.6,2.6-2.6h38.7c1.4,0,2.6,1.2,2.6,2.6v20.8
			C-742,161.2-743.1,162.3-744.5,162.3z"/>
	</g>
</g>
<g>
	<path class="st3" d="M-723.2,147.6c0-22-17.8-39.8-39.8-39.8c-22,0-39.8,17.8-39.8,39.8c0,20.4,15.3,37.2,35.1,39.5l4.5,7.7
		l4.4-7.7C-738.8,185.2-723.2,168.2-723.2,147.6z"/>
	<g>
		<g>
			<path class="st1" d="M-781.9,158.4"/>
			<path class="st1" d="M-744.1,157.8"/>
		</g>
		<path class="st2" d="M-744.7,149c0-0.1-0.1-0.2-0.2-0.2h-36.8c-0.1,0-0.2,0.1-0.2,0.2c0,0,0,14.2,0,14.2c0,1.5,8.3,2.8,18.6,2.8
			c10.3,0,18.6-1.2,18.6-2.8C-744.7,163.2-744.7,149-744.7,149z"/>
		<g>
			<ellipse class="st0" cx="-763.3" cy="148.8" rx="18.6" ry="2.8"/>
		</g>
		<g>
			<line class="st2" x1="-763.1" y1="147" x2="-763.1" y2="151.6"/>
			<rect x="-764.1" y="147" class="st3" width="2" height="4.6"/>
		</g>
		<path class="st2" d="M-757.7,142.5c0-3-3.3-15.3-5.4-15.3s-5.4,12.4-5.4,15.3c0,3,2.4,5.4,5.4,5.4
			C-760.1,147.9-757.7,145.4-757.7,142.5z"/>
		<path class="st0" d="M-760.9,144.2c0-1.2-1.3-6.2-2.2-6.2c-0.9,0-2.2,5-2.2,6.2s1,2.2,2.2,2.2
			C-761.9,146.3-760.9,145.4-760.9,144.2z"/>
	</g>
</g>
<g>
	<g>
		<path class="st0" d="M-723.2,147.6c0-22-17.8-39.8-39.8-39.8s-39.8,17.8-39.8,39.8c0,20.5,15.5,37.4,35.4,39.6l4.5,7.7l4.5-7.7
			C-738.7,185-723.2,168.1-723.2,147.6z"/>
	</g>
	<g>
		<g>
			<g>
				<path class="st2" d="M-740.1,162h-11.5c-1.1,0-2.1-0.9-2.1-2.1v-24c0-1.1,0.9-2.1,2.1-2.1h11.5c1.1,0,2.1,0.9,2.1,2.1v24
					C-738.1,161.1-739,162-740.1,162z"/>
			</g>
			<g>
				<rect x="-752.8" y="137.2" class="st4" width="13.7" height="20"/>
			</g>
			<g>
				<polygon class="st8" points="-739.1,139.4 -752.8,144.5 -752.8,147.7 -739.1,142.6 				"/>
			</g>
			<g>
				<polygon class="st8" points="-739.1,143.8 -752.8,148.9 -752.8,149.6 -739.1,144.5 				"/>
			</g>
			<g>
				<circle class="st3" cx="-745.9" cy="159.7" r="1.2"/>
			</g>
			<g>
				<path class="st4" d="M-744.7,135.5h-2.5c-0.1,0-0.2,0.1-0.2,0.2v0c0,0.1,0.1,0.2,0.2,0.2h2.5c0.1,0,0.2-0.1,0.2-0.2v0
					C-744.5,135.6-744.6,135.5-744.7,135.5z"/>
			</g>
			<g>
				<circle class="st4" cx="-748.1" cy="135.7" r="0.2"/>
			</g>
		</g>
		<g>
			<g>
				<g>
					<path class="st2" d="M-774.3,162h-11.5c-1.1,0-2.1-0.9-2.1-2.1v-24c0-1.1,0.9-2.1,2.1-2.1h11.5c1.1,0,2.1,0.9,2.1,2.1v24
						C-772.2,161.1-773.2,162-774.3,162z"/>
				</g>
				<g>
					<rect x="-787" y="137.2" class="st4" width="13.7" height="13.2"/>
				</g>
				<g>
					<polygon class="st8" points="-773.2,138.9 -787,144 -787,147.2 -773.2,142.1 					"/>
				</g>
				<g>
					<polygon class="st8" points="-773.2,143.3 -787,148.4 -787,149.1 -773.2,144 					"/>
				</g>
				<g>
					<path class="st4" d="M-778.9,135.5h-2.5c-0.1,0-0.2,0.1-0.2,0.2v0c0,0.1,0.1,0.2,0.2,0.2h2.5c0.1,0,0.2-0.1,0.2-0.2v0
						C-778.7,135.6-778.7,135.5-778.9,135.5z"/>
				</g>
				<g>
					<path class="st4" d="M-778.9,160.5h-2.5c-0.1,0-0.2,0.1-0.2,0.2v0c0,0.1,0.1,0.2,0.2,0.2h2.5c0.1,0,0.2-0.1,0.2-0.2v0
						C-778.7,160.6-778.7,160.5-778.9,160.5z"/>
				</g>
			</g>
			<g>
				<circle class="st3" cx="-775.8" cy="152.6" r="1.1"/>
			</g>
			<g>
				<circle class="st3" cx="-775.8" cy="155.3" r="1.1"/>
			</g>
			<g>
				<circle class="st3" cx="-775.8" cy="158" r="1.1"/>
			</g>
			<g>
				<circle class="st3" cx="-780.1" cy="152.6" r="1.1"/>
			</g>
			<g>
				<circle class="st3" cx="-780.1" cy="155.3" r="1.1"/>
			</g>
			<g>
				<circle class="st3" cx="-780.1" cy="158" r="1.1"/>
			</g>
			<g>
				<circle class="st3" cx="-784.4" cy="152.6" r="1.1"/>
			</g>
			<g>
				<circle class="st3" cx="-784.4" cy="155.3" r="1.1"/>
			</g>
			<g>
				<circle class="st3" cx="-784.4" cy="158" r="1.1"/>
			</g>
		</g>
		<g>
			<g>
				<rect x="-768.5" y="147" class="st1" width="5" height="3"/>
			</g>
			<g>
				<g>
					<polygon class="st1" points="-764.7,152.9 -757.2,148.5 -764.7,144.2 					"/>
				</g>
			</g>
		</g>
	</g>
</g>
<g>
	<path class="st0" d="M-723.2,147.7c0-22-17.8-39.8-39.8-39.8c-22,0-39.8,17.8-39.8,39.8c0,20.4,15.4,37.3,35.2,39.6l4.3,7.5
		l4.3-7.4C-738.9,185.3-723.2,168.4-723.2,147.7z"/>
	<g>
		<g>
			<g>
				<g>
					<path class="st3" d="M-771.5,159.9l1.1,2.2c-1,1.2-2.2,2.1-3.3,2.7c-1.2,0.6-2.5,1-4,1l-0.9-1.7l-2.1-0.9
						c-1.5-1.1-3.1-2.7-4.5-4.9l-0.8-2l-5.6-3.6c-0.8-0.5-1.4-1.1-1.6-1.5c-0.2-0.4-0.3-0.8-0.1-1.3c0.1-0.4,0.4-0.7,0.8-0.9
						c0.6-0.3,1.4-0.1,2.5,0.5l4.9,3.1l-4.9-5.5c-0.6-0.7-1-1.2-1.1-1.5c-0.3-0.6-0.4-1.1-0.3-1.5c0.1-0.4,0.4-0.7,0.9-1
						c0.9-0.4,1.8-0.1,2.9,1l5.2,5.6l-3.8-7.4c-0.4-0.8-0.6-1.5-0.5-2c0.1-0.6,0.4-1,1-1.3c1.1-0.6,2.2,0,3.1,1.9l3.6,7.5l-1-6.8
						c-0.3-2,0-3.2,0.8-3.6c0.5-0.2,0.9-0.3,1.3-0.2c0.4,0.1,0.7,0.4,0.9,0.9c0.3,0.5,0.5,1.1,0.6,1.9l1.9,8.5
						c0.3,0.3,0.6,0.8,1.1,1.5c0.2-0.4,0.6-0.8,1.1-1.3c0.1-0.9,0.3-1.7,0.6-2.3c0.3-0.6,0.8-1.1,1.4-1.4c0.6-0.3,2.1-1.1,2.7,0
						c0.7,1.1-1.3,5-1.3,5l-0.9,5.3C-770.4,157.5-770.9,158.8-771.5,159.9z"/>
				</g>
			</g>
		</g>
	</g>
	<g>
		<g>
			<g>
				<g>
					<path class="st2" d="M-756.5,146.4l-0.9-5.3c0,0-2-3.9-1.3-5c0.7-1.1,2.1-0.3,2.7,0c0.6,0.3,1.1,0.8,1.4,1.4
						c0.3,0.6,0.5,1.4,0.6,2.3c0.5,0.5,0.8,0.9,1.1,1.3c0.4-0.7,0.8-1.2,1.1-1.5l1.9-8.5c0.2-0.8,0.4-1.4,0.6-1.9
						c0.2-0.5,0.5-0.8,0.9-0.9c0.4-0.1,0.8-0.1,1.3,0.2c0.8,0.4,1.1,1.6,0.8,3.6l-1,6.8l3.6-7.5c0.9-1.8,2-2.4,3.1-1.9
						c0.6,0.3,0.9,0.7,1,1.3c0.1,0.6-0.1,1.2-0.5,2l-3.8,7.4l5.2-5.6c1.1-1.1,2-1.5,2.9-1c0.5,0.3,0.8,0.6,0.9,1
						c0.1,0.4,0,0.9-0.3,1.5c-0.2,0.3-0.5,0.8-1.1,1.5l-4.9,5.5l4.9-3.1c1.1-0.7,1.9-0.8,2.5-0.5c0.4,0.2,0.7,0.5,0.8,0.9
						c0.1,0.4,0.1,0.8-0.1,1.3c-0.2,0.5-0.8,1-1.6,1.5l-5.6,3.6l-0.8,2c-1.5,2.2-3,3.8-4.5,4.9l-2.1,0.9l-0.9,1.7
						c-1.4,0-2.7-0.4-4-1c-1.2-0.6-2.3-1.5-3.3-2.7l1.1-2.2C-755.3,149.4-755.9,148.1-756.5,146.4z"/>
				</g>
			</g>
		</g>
	</g>
</g>
<g>
	<path class="st3" d="M-723.2,148c0-22-17.8-39.8-39.8-39.8c-22,0-39.8,17.8-39.8,39.8c0,20.7,15.7,37.7,35.9,39.6l3.9,6.8l3.9-6.8
		C-738.9,185.7-723.2,168.7-723.2,148z"/>
	<g>
		<path class="st2" d="M-763,168.2c-5.7-0.1-10.5-2.1-14.3-5.9c-3.8-3.8-5.8-8.6-5.9-14.3c0.1-5.7,2.1-10.5,5.9-14.3
			c3.8-3.8,8.6-5.8,14.3-5.9c5.7,0.1,10.5,2.1,14.3,5.9c3.8,3.8,5.8,8.6,5.9,14.3c-0.1,5.7-2.1,10.5-5.9,14.3
			C-752.5,166.1-757.3,168.1-763,168.2z M-763,129.3c-5.3,0.1-9.7,2-13.2,5.5c-3.5,3.5-5.4,7.9-5.5,13.2c0.1,5.3,2,9.7,5.5,13.2
			c3.5,3.5,7.9,5.4,13.2,5.5c5.3-0.1,9.7-2,13.2-5.5c3.5-3.5,5.4-7.9,5.5-13.2c-0.1-5.3-2-9.7-5.5-13.2
			C-753.3,131.3-757.7,129.5-763,129.3z M-763,159.8c3.5-0.1,6.4-1.3,8.8-3.6s3.6-5.3,3.6-8.8h-24.8c0.1,3.5,1.3,6.4,3.6,8.8
			S-766.5,159.7-763,159.8z M-764.6,140.6c0-1-0.4-1.8-1-2.5c-0.7-0.6-1.5-1-2.5-1s-1.8,0.3-2.5,1c-0.6,0.6-1,1.5-1,2.5
			c0,0.4,0.1,0.6,0.3,0.9c0.2,0.2,0.5,0.3,0.8,0.3s0.6-0.1,0.8-0.3c0.2-0.2,0.4-0.5,0.4-0.8c0-0.3,0.1-0.6,0.3-0.8
			c0.2-0.2,0.5-0.3,0.8-0.3s0.6,0.1,0.8,0.3c0.2,0.2,0.4,0.5,0.4,0.8c0,0.3,0.1,0.6,0.3,0.8c0.2,0.2,0.5,0.3,0.8,0.3
			s0.6-0.1,0.8-0.3C-764.7,141.3-764.6,141-764.6,140.6z M-754.4,140.6c0-1-0.4-1.8-1-2.5c-0.6-0.6-1.5-1-2.5-1s-1.8,0.3-2.5,1
			c-0.7,0.6-1,1.5-1,2.5c0,0.4,0.1,0.6,0.3,0.9c0.2,0.2,0.5,0.3,0.8,0.3c0.3,0,0.6-0.1,0.8-0.3s0.3-0.5,0.3-0.8
			c0-0.3,0.1-0.6,0.3-0.8c0.2-0.2,0.5-0.3,0.9-0.3c0.4,0,0.6,0.1,0.9,0.3c0.2,0.2,0.3,0.5,0.3,0.8c0,0.3,0.1,0.6,0.3,0.8
			s0.5,0.3,0.8,0.3s0.6-0.1,0.8-0.3S-754.4,141-754.4,140.6z"/>
	</g>
</g>
<g>
	<g>
		<path class="st0" d="M-723.2,147.7c0-22-17.8-39.8-39.8-39.8c-22,0-39.8,17.8-39.8,39.8c0,20.6,15.7,37.6,35.8,39.6l4.3,7.4
			l4.3-7.5C-738.6,185-723.2,168.1-723.2,147.7z"/>
	</g>
	<g>
		<path class="st10" d="M-761.5,125.1h-4.6c-0.2,0-0.3,0.2-0.3,0.3v0c0,0.2,0.2,0.3,0.3,0.3h4.6c0.2,0,0.3-0.2,0.3-0.3v0
			C-761.1,125.3-761.3,125.1-761.5,125.1z"/>
	</g>
	<g>
		<path class="st2" d="M-752.7,174.4H-774c-2.1,0-3.8-1.7-3.8-3.8v-44.4c0-2.1,1.7-3.8,3.8-3.8h21.4c2.1,0,3.8,1.7,3.8,3.8v44.4
			C-748.8,172.7-750.5,174.4-752.7,174.4z"/>
	</g>
	<g>
		<rect x="-776.1" y="128.2" class="st4" width="25.4" height="37"/>
	</g>
	<g>
		<polygon class="st8" points="-750.6,132.3 -776.1,141.8 -776.1,147.7 -750.6,138.2 		"/>
	</g>
	<g>
		<polygon class="st8" points="-750.6,140.4 -776.1,149.9 -776.1,151.2 -750.6,141.7 		"/>
	</g>
	<g>
		<g>
			<g>
				<path class="st1" d="M-768.6,149.6c-1.7,0-3.1-1.4-3.1-3.1c0-1.7,1.4-3.1,3.1-3.1c1.7,0,3.1,1.4,3.1,3.1
					C-765.5,148.2-766.9,149.6-768.6,149.6z M-768.6,144.9c-0.9,0-1.7,0.7-1.7,1.7s0.7,1.7,1.7,1.7s1.7-0.7,1.7-1.7
					S-767.7,144.9-768.6,144.9z"/>
			</g>
		</g>
		<g>
			<g>
				<path class="st1" d="M-760.4,149.6c-1.7,0-3.1-1.4-3.1-3.1c0-1.7,1.4-3.1,3.1-3.1c1.7,0,3.1,1.4,3.1,3.1
					C-757.3,148.2-758.7,149.6-760.4,149.6z M-760.4,144.9c-0.9,0-1.7,0.7-1.7,1.7s0.7,1.7,1.7,1.7s1.7-0.7,1.7-1.7
					S-759.4,144.9-760.4,144.9z"/>
			</g>
		</g>
		<g>
			<g>
				<rect x="-768.6" y="148.2" class="st1" width="8.3" height="1.4"/>
			</g>
		</g>
	</g>
	<g>
		<circle class="st3" cx="-763.4" cy="170" r="2.3"/>
	</g>
	<g>
		<path class="st1" d="M-756.8,143.1c0-0.1,0-0.3,0.1-0.4c0.1-0.1,0.1-0.2,0.2-0.3s0.2-0.2,0.3-0.2s0.3-0.1,0.4-0.1
			c0.2,0,0.3,0,0.4,0.1s0.2,0.1,0.3,0.2c0.1,0.1,0.2,0.2,0.2,0.3c0.1,0.1,0.1,0.3,0.1,0.4c0,0.1,0,0.3-0.1,0.4
			c-0.1,0.1-0.1,0.2-0.2,0.3c-0.1,0.1-0.2,0.2-0.3,0.2c-0.1,0.1-0.3,0.1-0.4,0.1c-0.2,0-0.3,0-0.4-0.1c-0.1-0.1-0.2-0.1-0.3-0.2
			c-0.1-0.1-0.2-0.2-0.2-0.3C-756.8,143.3-756.8,143.2-756.8,143.1z M-754.8,135v3.5c0,0.4,0,0.8-0.1,1.1c0,0.4-0.1,0.8-0.2,1.1
			h-1.3c-0.1-0.4-0.1-0.8-0.2-1.1c0-0.4-0.1-0.7-0.1-1.1V135H-754.8z"/>
	</g>
	<g>
		<path class="st4" d="M-761.1,125.1h-4.6c-0.2,0-0.3,0.2-0.3,0.3v0c0,0.2,0.2,0.3,0.3,0.3h4.6c0.2,0,0.3-0.2,0.3-0.3v0
			C-760.7,125.3-760.9,125.1-761.1,125.1z"/>
	</g>
	<g>
		<circle class="st4" cx="-767.8" cy="125.5" r="0.3"/>
	</g>
</g>
</svg>
